<svg xmlns="http://www.w3.org/2000/svg" width="18.86" height="19.669" viewBox="0 0 18.86 19.669">
  <g id="Group_738" data-name="Group 738" transform="translate(-10.873 -6.166)">
    <path id="Path_530" data-name="Path 530" d="M2899.488,31.387a.4.4,0,0,0-.4.4v.271a7.724,7.724,0,0,1-.174,1.619h-3.144q.081-.807.081-1.619v-.3a.4.4,0,0,0-.405-.4h0a.4.4,0,0,0-.4.4v.279a16.033,16.033,0,0,1-.085,1.619H2891.8V30.456h2.052a.4.4,0,0,0,0-.809H2891.8V26.006a.4.4,0,0,0-.809,0v3.641h-3.038c.494-3.018,1.869-5.259,3.443-5.259a1.9,1.9,0,0,1,.328.032.377.377,0,0,0,.2-.02.411.411,0,0,0,.048-.819l-.02,0h-.558a8.5,8.5,0,1,0,8.5,8.5v-.3A.405.405,0,0,0,2899.488,31.387ZM2894.84,34.5c-.449,2.755-1.639,4.855-3.039,5.207V34.5Zm-6.878,0h3.03v5.207c-1.4-.352-2.589-2.452-3.038-5.207Zm3.03-4.046v3.237h-3.151a15.459,15.459,0,0,1,0-3.237Zm-7.282,1.619a7.666,7.666,0,0,1,.174-1.619h3.144a16.188,16.188,0,0,0,0,3.237h-3.144A7.657,7.657,0,0,1,2883.71,32.075Zm5.429-7.347a9.724,9.724,0,0,0-2.022,4.919h-3A7.713,7.713,0,0,1,2889.139,24.728Zm-5.024,9.774h3.018a9.439,9.439,0,0,0,2.023,4.919A7.713,7.713,0,0,1,2884.115,34.5Zm9.539,4.919a9.648,9.648,0,0,0,2.023-4.919h3A7.712,7.712,0,0,1,2893.654,39.421Z" transform="translate(-2871.903 -14.86)" stroke="#000" stroke-miterlimit="10" stroke-width="0.25"/>
    <path id="Path_531" data-name="Path 531" d="M2897.219,31.181l.246.194.247-.194c.158-.122,3.8-2.99,3.8-5.984a4.046,4.046,0,1,0-8.091,0C2893.42,28.191,2897.061,31.059,2897.219,31.181Zm.246-9.22A3.236,3.236,0,0,1,2900.7,25.2c0,2.185-2.428,4.45-3.237,5.138-.809-.688-3.236-2.949-3.236-5.138A3.236,3.236,0,0,1,2897.465,21.961Z" transform="translate(-2871.903 -14.86)" stroke="#000" stroke-miterlimit="10" stroke-width="0.25"/>
    <path id="Path_532" data-name="Path 532" d="M2899.488,25.2a2.023,2.023,0,1,0-2.023,2.023A2.023,2.023,0,0,0,2899.488,25.2Zm-3.236,0a1.214,1.214,0,1,1,1.213,1.214A1.214,1.214,0,0,1,2896.252,25.2Z" transform="translate(-2871.903 -14.86)" stroke="#000" stroke-miterlimit="10" stroke-width="0.25"/>
  </g>
</svg>
