<svg xmlns="http://www.w3.org/2000/svg" width="66.239" height="13.042" viewBox="0 0 66.239 13.042">
  <g id="XRHealth-logo" transform="translate(-2180.757 -25.347)">
    <path id="Path_512" data-name="Path 512" d="M2202.153,26.007a.539.539,0,1,1,1.073,0v5.182a.1.1,0,0,0,.113.113h6.309c.075,0,.131-.037.131-.113V26.007a.539.539,0,1,1,1.074,0V37.8a.539.539,0,1,1-1.074,0V32.433c0-.075-.056-.113-.131-.113h-6.309a.1.1,0,0,0-.113.113V37.8a.539.539,0,1,1-1.073,0Z"/>
    <path id="Path_513" data-name="Path 513" d="M2219.209,33.055a.1.1,0,0,0,.113-.113,4.136,4.136,0,0,0-.169-1.281,2.547,2.547,0,0,0-4.8,0,4.133,4.133,0,0,0-.17,1.281.1.1,0,0,0,.113.113Zm-5.781,2.978a7.019,7.019,0,0,1-.282-2.337,7.173,7.173,0,0,1,.282-2.337,3.532,3.532,0,0,1,6.648,0,6.752,6.752,0,0,1,.282,2.148.445.445,0,0,1-.471.472h-5.593a.1.1,0,0,0-.113.113,4.461,4.461,0,0,0,.189,1.564,2.466,2.466,0,0,0,2.542,1.753,3.133,3.133,0,0,0,2.429-1.018.56.56,0,0,1,.377-.188.431.431,0,0,1,.452.433.526.526,0,0,1-.113.339,3.939,3.939,0,0,1-3.2,1.414,3.3,3.3,0,0,1-3.427-2.356"/>
    <path id="Path_514" data-name="Path 514" d="M2227.528,35.43V34.092a.1.1,0,0,0-.113-.113h-2.146c-1.789,0-2.543.546-2.543,1.752,0,1.112.773,1.7,2.222,1.7,1.545,0,2.58-.754,2.58-2m1.6,2.356a.486.486,0,0,1-.527.49.537.537,0,0,1-.49-.321l-.433-.716h-.038a3.443,3.443,0,0,1-2.862,1.15c-1.732,0-3.069-.943-3.069-2.658,0-1.771,1.242-2.676,3.408-2.676h2.3a.1.1,0,0,0,.113-.113V32.3c0-1.489-.565-2.318-2.335-2.318a4.231,4.231,0,0,0-2.052.566.669.669,0,0,1-.358.113.445.445,0,0,1-.471-.471.555.555,0,0,1,.207-.415,4.627,4.627,0,0,1,2.731-.754c2.222,0,3.258,1,3.258,3.2v3.637a1.793,1.793,0,0,0,.188.961l.358.679a.7.7,0,0,1,.075.283"/>
    <path id="Path_515" data-name="Path 515" d="M2232.916,38.389c-1.374,0-1.864-.641-1.864-2.111V25.988a.51.51,0,1,1,1.017,0V36.24c0,.886.245,1.169,1.036,1.169a.491.491,0,1,1,0,.98Z"/>
    <path id="Path_516" data-name="Path 516" d="M2237.715,38.389c-1.657,0-2.3-.641-2.3-2.413V30.36a.1.1,0,0,0-.113-.113h-.735a.454.454,0,1,1,0-.905h.735a.1.1,0,0,0,.113-.113v-2.3a.51.51,0,1,1,1.017,0v2.3a.1.1,0,0,0,.113.113h1.431a.454.454,0,1,1,0,.905h-1.431a.1.1,0,0,0-.113.113v5.579c0,1.187.376,1.47,1.525,1.47a.491.491,0,1,1,0,.98Z"/>
    <path id="Path_517" data-name="Path 517" d="M2245.979,37.842V32.81c0-1.79-.791-2.7-2.354-2.7a2.379,2.379,0,0,0-2.448,2.507v5.22a.51.51,0,1,1-1.017,0V25.969a.51.51,0,1,1,1.017,0v4.448h.019a2.961,2.961,0,0,1,2.655-1.282c1.977,0,3.145,1.244,3.145,3.43v5.277a.51.51,0,1,1-1.017,0"/>
    <path id="Path_518" data-name="Path 518" d="M2189.148,36.918V34.375l-1.832-2.677,1.832-2.671V26.686a2.39,2.39,0,0,1,.363-1.309,1.452,1.452,0,0,0-.292-.03,1.316,1.316,0,0,0-1.15.66l-2.3,3.392h-.038l-2.3-3.392a1.314,1.314,0,0,0-1.149-.66,1.246,1.246,0,0,0-1.3,1.244,1.522,1.522,0,0,0,.283.848l2.9,4.259-3.128,4.6a1.514,1.514,0,0,0-.283.848,1.245,1.245,0,0,0,1.3,1.244,1.315,1.315,0,0,0,1.149-.66L2185.732,34h.038l2.526,3.731a1.316,1.316,0,0,0,1.149.66c.041,0,.081,0,.12-.006a2.654,2.654,0,0,1-.417-1.465"/>
    <path id="Path_519" data-name="Path 519" d="M2197.119,37.521l-2.149-4.127h-1.884a.1.1,0,0,0-.114.113v3.411a1.352,1.352,0,0,1-1.375,1.47,1.367,1.367,0,0,1-1.4-1.47V26.686a1.133,1.133,0,0,1,1.206-1.225h4.071c2.638,0,4.372,1.639,4.372,3.976a3.736,3.736,0,0,1-2.111,3.467l1.866,3.393a1.607,1.607,0,0,1,.189.772,1.267,1.267,0,0,1-1.32,1.319,1.466,1.466,0,0,1-1.356-.867m-.038-8.065a1.562,1.562,0,0,0-1.734-1.6h-2.261a.1.1,0,0,0-.114.113v2.959a.1.1,0,0,0,.114.113h2.261a1.558,1.558,0,0,0,1.734-1.583"/>
  </g>
</svg>
