<svg width="52" height="59" viewBox="0 0 52 59" fill="none" xmlns="http://www.w3.org/2000/svg">
<path fill-rule="evenodd" clip-rule="evenodd" d="M50.4446 27.1461L50.4448 37.6977C50.4187 37.9643 48.999 51.3266 26.1396 57.3422L26.4513 57.2578L26.4514 27.7242L50.4446 27.1461Z" fill="#4EB2E4" fill-opacity="0.2"/>
<path fill-rule="evenodd" clip-rule="evenodd" d="M26 1.57933V28.106H1.83331L1.83404 2.76884C5.86147 5.58586 9.73821 7.26294 14.0136 7.26294C18.9014 7.26294 23.257 4.99037 26.1153 1.43933L26 1.57933Z" fill="#4EB2E4" fill-opacity="0.2"/>
<path fill-rule="evenodd" clip-rule="evenodd" d="M26.1568 1.43933H26.1154C23.2571 4.99037 18.9015 7.26294 14.0137 7.26294C9.73835 7.26294 5.86161 5.58586 1.83418 2.76884V38.7702C1.83418 38.7702 5.35606 51.5185 26.1397 57.3421C49.23 51.2657 50.4453 37.6935 50.4453 37.6935V1.69211C43.9776 4.30739 42.5363 7.26294 38.2585 7.26294C33.3731 7.26294 29.0151 4.99037 26.1568 1.43933Z" stroke="#4EB2E4" stroke-width="2" stroke-linecap="round" stroke-linejoin="round"/>
<path d="M1.83334 28.2399L50.2136 26.9614" stroke="#4EB2E4" stroke-width="2" stroke-linecap="round" stroke-linejoin="round"/>
<path d="M26.1389 1.43945V57.3422" stroke="#4EB2E4" stroke-width="2" stroke-linecap="round" stroke-linejoin="round"/>
<path d="M11.5699 6.9082V27.8985" stroke="#4EB2E4" stroke-width="2" stroke-linejoin="round"/>
<path d="M6.70879 5.69299V27.8985" stroke="#4EB2E4" stroke-width="2" stroke-linejoin="round"/>
<path d="M16.4167 7.21204V28.1756" stroke="#4EB2E4" stroke-width="2" stroke-linejoin="round"/>
<path d="M21.2778 5.46753V28.1762" stroke="#4EB2E4" stroke-width="2" stroke-linejoin="round"/>
<path d="M31 27.3423V55.7361" stroke="#4EB2E4" stroke-width="2" stroke-linejoin="round"/>
<path d="M35.8611 27.3423V53.8192" stroke="#4EB2E4" stroke-width="2" stroke-linejoin="round"/>
<path d="M40.7365 27.3043V51.1163" stroke="#4EB2E4" stroke-width="2" stroke-linejoin="round"/>
<path d="M45.5977 27.3043V46.9383" stroke="#4EB2E4" stroke-width="2" stroke-linejoin="round"/>
</svg>
